# xmcd
#
# Track frame offsets: 
#        150
#        10195
#        30630
#        41667
#        51662
#        64347
#        87260
#        105162
#        113517
#        129115
#        147377
#        169430
#        181290
#        191202
#        200320
#
# Disc length: 2878 seconds
#
# Revision: 3
# Processed by: cddbd v1.5.2PL0 Copyright (c) Steve Scherf et al.
# Submitted via: ExactAudioCopyFreeDBPlugin 1.0
#
DISCID=cf0b3c0f
DTITLE=Peter Ratzenbeck - Peter's Fancy
DYEAR=2000
DGENRE=Blues
TTITLE0=Welfenstein
TTITLE1=Ka Liad
TTITLE2=Troubadour
TTITLE3=Mr. Ireland
TTITLE4=Der "Ohrwurm"
TTITLE5=Fraunz Bodschengls
TTITLE6=Waldviertler Nächte
TTITLE7=Foggey Dew
TTITLE8=Sunday's Fantasy
TTITLE9=Song for Brigitte
TTITLE10=Stadt von de Engl
TTITLE11=Kaliyuga Express
TTITLE12=Connemara Bay
TTITLE13=Peter's Fancy
TTITLE14=Nix is so stü'
EXTD=
EXTT0=
EXTT1=
EXTT2=
EXTT3=
EXTT4=
EXTT5=
EXTT6=
EXTT7=
EXTT8=
EXTT9=
EXTT10=
EXTT11=
EXTT12=
EXTT13=
EXTT14=
PLAYORDER=
